<svg width="30" height="32" viewBox="0 0 30 32" fill="none" xmlns="http://www.w3.org/2000/svg">
<path d="M15 30.0577C22.4558 30.0577 28.5 23.6648 28.5 15.7788C28.5 7.89286 22.4558 1.5 15 1.5C7.54416 1.5 1.5 7.89286 1.5 15.7788C1.5 23.6648 7.54416 30.0577 15 30.0577Z" fill="white" stroke="white" stroke-width="3" stroke-linecap="round" stroke-linejoin="round"/>
<path d="M11.0713 11.4951C11.3887 10.5408 12.0151 9.73609 12.8397 9.22352C13.6643 8.71095 14.6338 8.52358 15.5765 8.6946C16.5192 8.86562 17.3742 9.384 17.9901 10.1579C18.6061 10.9318 18.9432 11.9114 18.9418 12.923C18.9418 15.7787 14.8918 17.2066 14.8918 17.2066" stroke="black" stroke-width="3" stroke-linecap="round" stroke-linejoin="round"/>
<path d="M14.999 22.9182H15.0142" stroke="black" stroke-width="3" stroke-linecap="round" stroke-linejoin="round"/>
</svg>
